<svg width="32" height="32" viewBox="0 0 32 32" fill="none" xmlns="http://www.w3.org/2000/svg">
<path fill-rule="evenodd" clip-rule="evenodd" d="M28 21C28.5523 21 29 21.4477 29 22V27C29 28.1046 28.1046 29 27 29H22C21.4477 29 21 28.5523 21 28C21 27.4477 21.4477 27 22 27H27V22C27 21.4477 27.4477 21 28 21ZM4 21C4.55228 21 5 21.4477 5 22V27H10C10.5523 27 11 27.4477 11 28C11 28.5523 10.5523 29 10 29H5C3.89543 29 3 28.1046 3 27V22C3 21.4477 3.44772 21 4 21ZM11.89 11V21H10.91V11H11.89ZM18.31 11V21H17.33V11H18.31ZM25 11V21H24.02V11H25ZM9.52 11V21H7V11H9.52ZM15.64 11V21H13.12V11H15.64ZM22.63 11V21H20.11V11H22.63ZM10 3C10.5523 3 11 3.44772 11 4C11 4.55228 10.5523 5 10 5H5V10C5 10.5523 4.55228 11 4 11C3.44772 11 3 10.5523 3 10V5C3 3.89543 3.89543 3 5 3H10ZM27 3C28.1046 3 29 3.89543 29 5V10C29 10.5523 28.5523 11 28 11C27.4477 11 27 10.5523 27 10V5H22C21.4477 5 21 4.55228 21 4C21 3.44772 21.4477 3 22 3H27Z" fill="white"/>
</svg>
