<svg width="32" height="32" viewBox="0 0 32 32" fill="none" xmlns="http://www.w3.org/2000/svg">
<g clip-path="url(#clip0)">
<path d="M4.82 18.9231V27H3V18.9231H4.82Z" fill="white"/>
<path d="M6.53167 18.9231V27H5.82389V18.9231H6.53167Z" fill="white"/>
<path d="M9.24 18.9231V27H7.42V18.9231H9.24Z" fill="white"/>
<path d="M11.1683 18.9231V27H10.4606V18.9231H11.1683Z" fill="white"/>
<path d="M14.2883 18.9231V27H12.4683V18.9231H14.2883Z" fill="white"/>
<path d="M16 18.9231V27H15.2922V18.9231H16Z" fill="white"/>
<path d="M27.2883 4V12.0769H25.4683V4H27.2883Z" fill="white"/>
<path d="M29 4V12.0769H28.2922V4H29Z" fill="white"/>
<path fill-rule="evenodd" clip-rule="evenodd" d="M17.82 7.23077V4H16V7.23077H17.82Z" fill="white"/>
<path fill-rule="evenodd" clip-rule="evenodd" d="M19.5317 7.23077V4H18.8239V7.23077H19.5317Z" fill="white"/>
<path fill-rule="evenodd" clip-rule="evenodd" d="M22.24 7.23077V4H20.42V7.23077H22.24Z" fill="white"/>
<path fill-rule="evenodd" clip-rule="evenodd" d="M24.1683 7.23077V4H23.4606V7.23077H24.1683Z" fill="white"/>
<path fill-rule="evenodd" clip-rule="evenodd" d="M18.8239 4H19.5317V7.23077H18.8239V4ZM20.42 7.23077V4H22.24V7.23077H20.42ZM23.4606 7.23077H24.1683V4H23.4606V7.23077ZM17.82 4H16V7.23077H17.82V4ZM28.2922 12.0769H29V4H28.2922V12.0769Z" fill="white"/>
<path d="M22.5 10.5V13.7308H21.7922V10.5H22.5Z" fill="white"/>
<path d="M9.5 10.5V13.6923H11.32V10.5H9.5Z" fill="white"/>
<path fill-rule="evenodd" clip-rule="evenodd" d="M13.0317 13.6923V10.5H12.3239V13.6923H13.0317Z" fill="white"/>
<path fill-rule="evenodd" clip-rule="evenodd" d="M15.74 13.6923V10.5H13.92V13.6923H15.74Z" fill="white"/>
<path fill-rule="evenodd" clip-rule="evenodd" d="M17.6683 13.6923V10.5H16.9606V13.6923H17.6683Z" fill="white"/>
<path fill-rule="evenodd" clip-rule="evenodd" d="M13.0317 13.6923H12.3239V10.5H13.0317V13.6923ZM13.92 13.6923H15.74V10.5H13.92V13.6923ZM16.9606 13.6923H17.6683V10.5H16.9606V13.6923Z" fill="white"/>
<path d="M20.7883 13.7308H18.9683V10.5H20.7883V13.7308Z" fill="white"/>
<path fill-rule="evenodd" clip-rule="evenodd" d="M31.4188 25.5479L29.4591 18.2345C29.2893 17.6008 28.9348 17.1234 28.461 16.8448C27.994 16.5702 27.4573 16.517 26.9758 16.646C26.6959 16.721 26.4306 16.8587 26.205 17.0534C26.0452 16.8491 25.8548 16.6818 25.6399 16.5554C25.1728 16.2808 24.6361 16.2276 24.1546 16.3566C23.8303 16.4435 23.5256 16.6145 23.2796 16.861C23.1642 16.7483 23.0372 16.6511 22.9003 16.5706C22.4333 16.296 21.8966 16.2428 21.4151 16.3719C21.1992 16.4297 20.992 16.5248 20.805 16.6547L20.4237 15.2318C20.287 14.723 19.9538 14.2892 19.4974 14.0259C19.041 13.7626 18.4987 13.6913 17.9898 13.8277C17.4806 13.9641 17.0465 14.2972 16.7829 14.7538C16.5193 15.2103 16.4479 15.7528 16.5843 16.262L18.4706 23.3015L17.4538 25.8347C17.2426 26.3606 17.222 26.9439 17.3955 27.4834C17.569 28.0229 17.9258 28.4849 18.4039 28.7892L22.5763 31.4462C23.1502 31.8122 23.851 31.9198 24.5087 31.7435L28.4517 30.687C30.8939 30.0326 31.9594 27.5656 31.4188 25.5479ZM18.6835 26.3283C18.5875 26.5674 18.5781 26.8325 18.657 27.0778C18.7358 27.323 18.898 27.533 19.1153 27.6713L23.2881 30.3286C23.5481 30.4944 23.8663 30.5438 24.1658 30.4636L28.1088 29.4071C29.7623 28.964 30.5127 27.2863 30.1388 25.8909L28.22 18.7297L28.1792 18.5774C28.0877 18.2358 27.9263 18.0675 27.7894 17.987C27.6458 17.9026 27.4772 17.8835 27.3187 17.9259C27.1603 17.9684 27.0238 18.0693 26.9417 18.2142C26.8634 18.3523 26.8078 18.5787 26.8993 18.9204L27.0299 19.4076C27.1246 19.761 26.9148 20.1243 26.5614 20.219C26.2079 20.3137 25.8446 20.104 25.7499 19.7506L25.6194 19.2633L25.619 19.2619L25.3581 18.288C25.2665 17.9464 25.1051 17.7781 24.9682 17.6977C24.8247 17.6132 24.6561 17.5941 24.4976 17.6365C24.3391 17.679 24.2027 17.7799 24.1205 17.9248C24.0422 18.0629 23.9866 18.2894 24.0781 18.631L24.47 20.0935C24.5647 20.447 24.355 20.8102 24.0015 20.9049C23.6481 20.9996 23.2848 20.7899 23.1901 20.4365L22.7982 18.974L22.6185 18.3033C22.527 17.9616 22.3656 17.7934 22.2287 17.7129C22.0851 17.6285 21.9165 17.6093 21.7581 17.6518C21.5996 17.6942 21.4632 17.7951 21.381 17.94C21.3027 18.0782 21.2471 18.3046 21.3386 18.6462L21.9102 20.7794C22.0049 21.1329 21.7952 21.4961 21.4417 21.5909C21.0883 21.6856 20.725 21.4758 20.6303 21.1224L20.0587 18.9892L20.0582 18.9874L19.144 15.5756C19.0984 15.4061 18.9873 15.2614 18.8353 15.1737C18.6831 15.0859 18.5024 15.0621 18.3327 15.1076C18.163 15.1531 18.0183 15.2641 17.9304 15.4163C17.8426 15.5685 17.8188 15.7493 17.8642 15.919L20.4935 25.7317C20.5882 26.0851 20.3785 26.4484 20.0251 26.5431C19.6716 26.6378 19.3083 26.4281 19.2136 26.0747L19.0422 25.4347L18.6835 26.3283Z" fill="white"/>
</g>
<defs>
<clipPath id="clip0">
<rect width="32" height="32" fill="white"/>
</clipPath>
</defs>
</svg>
